<?xml version="1.0" standalone="no"?><!DOCTYPE svg PUBLIC "-//W3C//DTD SVG 1.1//EN" "http://www.w3.org/Graphics/SVG/1.1/DTD/svg11.dtd"><svg t="1661091902096" class="icon" viewBox="0 0 1024 1024" version="1.1" xmlns="http://www.w3.org/2000/svg" p-id="1624" xmlns:xlink="http://www.w3.org/1999/xlink" width="200" height="200"><defs><style type="text/css">@font-face { font-family: feedback-iconfont; src: url("//at.alicdn.com/t/font_1031158_u69w8yhxdu.woff2?t=1630033759944") format("woff2"), url("//at.alicdn.com/t/font_1031158_u69w8yhxdu.woff?t=1630033759944") format("woff"), url("//at.alicdn.com/t/font_1031158_u69w8yhxdu.ttf?t=1630033759944") format("truetype"); }
</style></defs><path d="M840.533333 34.133333c17.066667 17.066667 17.066667 42.666667 0 59.733334l-682.666666 682.666666c-8.533333 8.533333-19.2 12.8-29.866667 12.8s-21.333333-4.266667-29.866667-12.8c-17.066667-17.066667-17.066667-42.666667 0-59.733333L196.266667 618.666667C179.2 578.133333 170.666667 535.466667 170.666667 490.666667c0-23.466667 19.2-42.666667 42.666666-42.666667s42.666667 19.2 42.666667 42.666667c0 21.333333 2.133333 40.533333 6.4 59.733333l36.266667-36.266667c0-8.533333-2.133333-14.933333-2.133334-23.466666V234.666667c0-117.333333 96-213.333333 213.333334-213.333334 57.6 0 110.933333 21.333333 151.466666 61.866667 10.666667 10.666667 21.333333 23.466667 29.866667 38.4l87.466667-87.466667c19.2-17.066667 44.8-17.066667 61.866666 0zM384 430.933333L629.333333 185.6c-6.4-14.933333-14.933333-27.733333-27.733333-40.533333C578.133333 119.466667 546.133333 106.666667 512 106.666667c-70.4 0-128 57.6-128 128v196.266666zM512 704c117.333333 0 213.333333-96 213.333333-213.333333v-128c0-23.466667-19.2-42.666667-42.666666-42.666667s-42.666667 19.2-42.666667 42.666667v128c0 70.4-57.6 128-128 128-25.6 0-51.2-8.533333-72.533333-23.466667-19.2-12.8-46.933333-8.533333-59.733334 10.666667-12.8 19.2-8.533333 46.933333 10.666667 59.733333C426.666667 691.2 467.2 704 512 704" fill="#d81e06" p-id="1625"></path><path d="M853.333333 490.666667c0-23.466667-19.2-42.666667-42.666666-42.666667s-42.666667 19.2-42.666667 42.666667c0 140.8-115.2 256-256 256-57.6 0-115.2-21.333333-162.133333-57.6-19.2-14.933333-44.8-12.8-59.733334 6.4-14.933333 19.2-12.8 44.8 6.4 59.733333 49.066667 40.533333 108.8 66.133333 172.8 74.666667V896h-128c-23.466667 0-42.666667 19.2-42.666666 42.666667s19.2 42.666667 42.666666 42.666666h341.333334c23.466667 0 42.666667-19.2 42.666666-42.666666s-19.2-42.666667-42.666666-42.666667h-128v-66.133333c168.533333-21.333333 298.666667-166.4 298.666666-339.2" fill="#d81e06" p-id="1626"></path></svg>