<?xml version="1.0" standalone="no"?><!DOCTYPE svg PUBLIC "-//W3C//DTD SVG 1.1//EN" "http://www.w3.org/Graphics/SVG/1.1/DTD/svg11.dtd"><svg t="1661092064969" class="icon" viewBox="0 0 1024 1024" version="1.1" xmlns="http://www.w3.org/2000/svg" p-id="3669" xmlns:xlink="http://www.w3.org/1999/xlink" width="200" height="200"><defs><style type="text/css">@font-face { font-family: feedback-iconfont; src: url("//at.alicdn.com/t/font_1031158_u69w8yhxdu.woff2?t=1630033759944") format("woff2"), url("//at.alicdn.com/t/font_1031158_u69w8yhxdu.woff?t=1630033759944") format("woff"), url("//at.alicdn.com/t/font_1031158_u69w8yhxdu.ttf?t=1630033759944") format("truetype"); }
</style></defs><path d="M507.52 673.6h23.68c85.12 0 154.24-65.92 154.24-147.2V198.08c0-81.28-69.12-147.2-154.24-147.2h-23.68c-85.12 0-154.24 65.92-154.24 147.2v328.32c0 81.28 69.12 147.2 154.24 147.2z" fill="#28A6EC" p-id="3670"></path><path d="M845.76 487.68a40.32 40.32 0 0 0-47.04 32c-28.48 151.68-145.92 261.76-279.04 261.76-134.08 0-251.84-111.04-279.68-264-3.84-21.76-24.96-36.16-46.72-32.32-21.76 4.16-36.48 24.96-32.32 46.72 32 175.68 161.92 307.2 317.12 327.36v118.4c0 5.76 4.48 9.92 9.92 9.92h63.04c5.76 0 9.92-4.48 9.92-9.92v-118.4c154.24-19.84 284.48-150.4 317.12-324.48 3.84-21.76-10.56-42.88-32.32-47.04z" fill="#28A6EC" p-id="3671"></path></svg>