<?xml version="1.0" standalone="no"?><!DOCTYPE svg PUBLIC "-//W3C//DTD SVG 1.1//EN" "http://www.w3.org/Graphics/SVG/1.1/DTD/svg11.dtd"><svg t="1658669561775" class="icon" viewBox="0 0 1024 1024" version="1.1" xmlns="http://www.w3.org/2000/svg" p-id="5546" xmlns:xlink="http://www.w3.org/1999/xlink" width="200" height="200"><defs><style type="text/css"></style></defs><path d="M510.32 638.81c-88.68 0-161.23-72.55-161.23-161.23V227.97c0-88.68 72.55-161.23 161.23-161.23h0.2c88.57 0 161.03 72.46 161.03 161.03v249.81c0 88.68-72.55 161.23-161.23 161.23z" fill="#F7B52C" p-id="5547"></path><path d="M510.32 759.71c-185.13 0-335.75-150.62-335.75-335.75 0-19.59 15.89-35.48 35.48-35.48s35.48 15.89 35.48 35.48c0 146 118.79 264.79 264.79 264.79s264.79-118.79 264.79-264.79c0-19.59 15.89-35.48 35.48-35.48 19.59 0 35.48 15.89 35.48 35.48 0 185.13-150.62 335.75-335.75 335.75z" fill="#F7B52C" p-id="5548"></path><path d="M510.32 949.74c-19.59 0-35.48-15.89-35.48-35.48V737.79c0-19.59 15.89-35.48 35.48-35.48 19.59 0 35.48 15.89 35.48 35.48v176.47c0 19.59-15.89 35.48-35.48 35.48z" fill="#F7B52C" p-id="5549"></path><path d="M439.64 410.8c-19.59 0-35.48-15.88-35.48-35.48V234.87c0-19.59 15.88-35.48 35.48-35.48s35.48 15.88 35.48 35.48v140.46c0 19.59-15.88 35.47-35.48 35.47z" fill="#FFFFFF" p-id="5550"></path></svg>